{"title":"Night Train to Lisbon 2013 DVDRip XViD juggs","uid":8692610,"size":738909131,"categoryP":"video","categoryS":"movies","magnet":"?xt=urn:btih:c32cf9ff85540f8abb0b826dafd5d91f3b74f0ec&amp;dn=Night+Train+to+Lisbon+2013+DVDRip+XViD+juggs&amp;tr=udp%3A%2F%2Ftracker.openbittorrent.com%3A80&amp;tr=udp%3A%2F%2Fopen.demonii.com%3A1337&amp;tr=udp%3A%2F%2Ftracker.coppersurfer.tk%3A6969&amp;tr=udp%3A%2F%2Fexodus.desync.com%3A6969","seeders":8,"leechers":0,"uploader":"juggs99","files":3,"time":1373910228,"description":"Source :DVDR-PTpOWeR(Thanks)\n &lt;a href=&quot;\nhttp://www.imdb.com/title/tt1654523/&quot; rel=&quot;nofollow&quot; target=&quot;_NEW&quot;&gt;\nhttp://www.imdb.com/title/tt1654523/&lt;/a&gt; \n\nFormat                                   : AVI\nFormat/Info                              : Audio Video Interleave\nFile size                                : 699 MiB\nDuration                                 : 1h 46mn\nOverall bit rate                         : 916 Kbps\nWriting library                          : VirtualDub build 32842/release\n\nVideo\nID                                       : 0\nFormat                                   : MPEG-4 Visual\nFormat profile                           : Advanced Simple@L5\nFormat settings, BVOP                    : 2\nFormat settings, QPel                    : No\nFormat settings, GMC                     : No warppoints\nFormat settings, Matrix                  : Default (H.263)\nMuxing mode                              : Packed bitstream\nCodec ID                                 : XVID\nCodec ID/Hint                            : XviD\nDuration                                 : 1h 46mn\nBit rate                                 : 778 Kbps\nWidth                                    : 640 pixels\nHeight                                   : 352 pixels\nDisplay aspect ratio                     : 16:9\nFrame rate                               : 25.000 fps\nColor space                              : YUV\nChroma subsampling                       : 4:2:0\nBit depth                                : 8 bits\nScan type                                : Progressive\nCompression mode                         : Lossy\nBits/(Pixel*Frame)                       : 0.138\nStream size                              : 593 MiB (85%)\nWriting library                          : XviD 64\n\nAudio\nID                                       : 1\nFormat                                   : MPEG Audio\nFormat version                           : Version 1\nFormat profile                           : Layer 3\nCodec ID                                 : 55\nCodec ID/Hint                            : MP3\nDuration                                 : 1h 46mn\nBit rate mode                            : Constant\nBit rate                                 : 128 Kbps\nChannel(s)                               : 2 channels\nSampling rate                            : 48.0 KHz\nCompression mode                         : Lossy\nStream size                              : 97.7 MiB (14%)\nAlignment                                : Split accross interleaves\nInterleave, duration                     : 40 ms (1.00 video frame)\nInterleave, preload duration             : 500 ms\nWriting library                          : LAME3.99r\n &lt;a href=&quot;\nhttp://img708.imageshack.us/img708/1778/4id3.png&quot; rel=&quot;nofollow&quot; target=&quot;_NEW&quot;&gt;\nhttp://img708.imageshack.us/img708/1778/4id3.png&lt;/a&gt; &lt;a href=&quot;\nhttp://img844.imageshack.us/img844/9144/bay9.png&quot; rel=&quot;nofollow&quot; target=&quot;_NEW&quot;&gt;\nhttp://img844.imageshack.us/img844/9144/bay9.png&lt;/a&gt; &lt;a href=&quot;\nhttp://img89.imageshack.us/img89/1894/y6f3.png&quot; rel=&quot;nofollow&quot; target=&quot;_NEW&quot;&gt;\nhttp://img89.imageshack.us/img89/1894/y6f3.png&lt;/a&gt;","torrent":{"xt":"urn:btih:c32cf9ff85540f8abb0b826dafd5d91f3b74f0ec","amp;dn":"Night+Train+to+Lisbon+2013+DVDRip+XViD+juggs","amp;tr":["udp%3A%2F%2Ftracker.openbittorrent.com%3A80","udp%3A%2F%2Fopen.demonii.com%3A1337","udp%3A%2F%2Ftracker.coppersurfer.tk%3A6969","udp%3A%2F%2Fexodus.desync.com%3A6969"],"infoHash":"c32cf9ff85540f8abb0b826dafd5d91f3b74f0ec","infoHashBuffer":{"type":"Buffer","data":[195,44,249,255,133,84,15,138,187,11,130,109,175,213,217,31,59,116,240,236]},"announce":[],"urlList":[]}}